<?xml version="1.0" encoding="UTF-8" standalone="no"?>
<!DOCTYPE svg PUBLIC "-//W3C//DTD SVG 1.1//EN"
 "http://www.w3.org/Graphics/SVG/1.1/DTD/svg11.dtd">
<!-- Generated by graphviz version 2.40.1 (20161225.0304)
 -->
<!-- Title: dependencies Pages: 1 -->
<svg width="1992pt" height="211pt"
 viewBox="0.00 0.00 1992.00 211.00" xmlns="http://www.w3.org/2000/svg" xmlns:xlink="http://www.w3.org/1999/xlink">
<g id="graph0" class="graph" transform="scale(1 1) rotate(0) translate(4 207)">
<title>dependencies</title>
<polygon fill="#ffffff" stroke="transparent" points="-4,4 -4,-207 1988,-207 1988,4 -4,4"/>
<text text-anchor="start" x="971.0091" y="-42.4" font-family="sans-serif" font-weight="bold" font-size="14.00" fill="#000000">Legend</text>
<polygon fill="#ffffb3" stroke="transparent" points="758,-10 758,-30 778,-30 778,-10 758,-10"/>
<text text-anchor="start" x="781.629" y="-15.4" font-family="sans-serif" font-size="14.00" fill="#000000"> &#160;Declarations</text>
<polygon fill="#8dd3c7" stroke="transparent" points="871,-10 871,-30 891,-30 891,-10 871,-10"/>
<text text-anchor="start" x="894.7251" y="-15.4" font-family="sans-serif" font-size="14.00" fill="#000000"> &#160;Module</text>
<polygon fill="#80b1d3" stroke="transparent" points="957,-10 957,-30 977,-30 977,-10 957,-10"/>
<text text-anchor="start" x="980.7812" y="-15.4" font-family="sans-serif" font-size="14.00" fill="#000000"> &#160;Bootstrap</text>
<polygon fill="#fdb462" stroke="transparent" points="1054,-10 1054,-30 1074,-30 1074,-10 1054,-10"/>
<text text-anchor="start" x="1077.6732" y="-15.4" font-family="sans-serif" font-size="14.00" fill="#000000"> &#160;Providers</text>
<polygon fill="#fb8072" stroke="transparent" points="1150,-10 1150,-30 1170,-30 1170,-10 1150,-10"/>
<text text-anchor="start" x="1173.7258" y="-15.4" font-family="sans-serif" font-size="14.00" fill="#000000"> &#160;Exports</text>
<g id="clust1" class="cluster">
<title>cluster_HomeModule</title>
<polygon fill="none" stroke="#000000" stroke-dasharray="1,5" points="8,-70 8,-195 1976,-195 1976,-70 8,-70"/>
</g>
<g id="clust2" class="cluster">
<title>cluster_HomeModule_declarations</title>
<polygon fill="none" stroke="#000000" points="810,-78 810,-130 1968,-130 1968,-78 810,-78"/>
</g>
<g id="clust11" class="cluster">
<title>cluster_HomeModule_imports</title>
<polygon fill="none" stroke="#000000" points="246,-78 246,-130 802,-130 802,-78 246,-78"/>
</g>
<g id="clust14" class="cluster">
<title>cluster_HomeModule_providers</title>
<polygon fill="none" stroke="#000000" points="16,-78 16,-130 238,-130 238,-78 16,-78"/>
</g>
<!-- AboutComponent -->
<g id="node1" class="node">
<title>AboutComponent</title>
<polygon fill="#ffffb3" stroke="#000000" points="1960.3301,-122 1843.6699,-122 1843.6699,-86 1960.3301,-86 1960.3301,-122"/>
<text text-anchor="middle" x="1902" y="-99.8" font-family="Times,serif" font-size="14.00" fill="#000000">AboutComponent</text>
</g>
<!-- HomeModule -->
<g id="node9" class="node">
<title>HomeModule</title>
<polygon fill="#8dd3c7" stroke="#000000" points="1088.7619,-187 1085.7619,-191 1064.7619,-191 1061.7619,-187 995.2381,-187 995.2381,-151 1088.7619,-151 1088.7619,-187"/>
<text text-anchor="middle" x="1042" y="-164.8" font-family="Times,serif" font-size="14.00" fill="#000000">HomeModule</text>
</g>
<!-- AboutComponent&#45;&gt;HomeModule -->
<g id="edge1" class="edge">
<title>AboutComponent&#45;&gt;HomeModule</title>
<path fill="none" stroke="#000000" d="M1902,-122.0908C1902,-145.1328 1902,-182 1902,-182 1902,-182 1098.8481,-182 1098.8481,-182"/>
<polygon fill="#000000" stroke="#000000" points="1098.8481,-178.5001 1088.8481,-182 1098.848,-185.5001 1098.8481,-178.5001"/>
</g>
<!-- BlogComponent -->
<g id="node2" class="node">
<title>BlogComponent</title>
<polygon fill="#ffffb3" stroke="#000000" points="1826.0605,-122 1717.9395,-122 1717.9395,-86 1826.0605,-86 1826.0605,-122"/>
<text text-anchor="middle" x="1772" y="-99.8" font-family="Times,serif" font-size="14.00" fill="#000000">BlogComponent</text>
</g>
<!-- BlogComponent&#45;&gt;HomeModule -->
<g id="edge2" class="edge">
<title>BlogComponent&#45;&gt;HomeModule</title>
<path fill="none" stroke="#000000" d="M1772,-122.0449C1772,-143.6623 1772,-177 1772,-177 1772,-177 1098.7753,-177 1098.7753,-177"/>
<polygon fill="#000000" stroke="#000000" points="1098.7753,-173.5001 1088.7753,-177 1098.7752,-180.5001 1098.7753,-173.5001"/>
</g>
<!-- CoordmapComponent -->
<g id="node3" class="node">
<title>CoordmapComponent</title>
<polygon fill="#ffffb3" stroke="#000000" points="1700.4355,-122 1559.5645,-122 1559.5645,-86 1700.4355,-86 1700.4355,-122"/>
<text text-anchor="middle" x="1630" y="-99.8" font-family="Times,serif" font-size="14.00" fill="#000000">CoordmapComponent</text>
</g>
<!-- CoordmapComponent&#45;&gt;HomeModule -->
<g id="edge3" class="edge">
<title>CoordmapComponent&#45;&gt;HomeModule</title>
<path fill="none" stroke="#000000" d="M1630,-122.2228C1630,-142.3652 1630,-172 1630,-172 1630,-172 1099.1246,-172 1099.1246,-172"/>
<polygon fill="#000000" stroke="#000000" points="1099.1246,-168.5001 1089.1246,-172 1099.1245,-175.5001 1099.1246,-168.5001"/>
</g>
<!-- FeaturesComponent -->
<g id="node4" class="node">
<title>FeaturesComponent</title>
<polygon fill="#ffffb3" stroke="#000000" points="1541.2548,-122 1412.7452,-122 1412.7452,-86 1541.2548,-86 1541.2548,-122"/>
<text text-anchor="middle" x="1477" y="-99.8" font-family="Times,serif" font-size="14.00" fill="#000000">FeaturesComponent</text>
</g>
<!-- FeaturesComponent&#45;&gt;HomeModule -->
<g id="edge4" class="edge">
<title>FeaturesComponent&#45;&gt;HomeModule</title>
<path fill="none" stroke="#000000" d="M1477,-122.2222C1477,-140.8285 1477,-167 1477,-167 1477,-167 1098.9659,-167 1098.9659,-167"/>
<polygon fill="#000000" stroke="#000000" points="1098.966,-163.5001 1088.9659,-167 1098.9659,-170.5001 1098.966,-163.5001"/>
</g>
<!-- FooterComponent -->
<g id="node5" class="node">
<title>FooterComponent</title>
<polygon fill="#ffffb3" stroke="#000000" points="1394.8809,-122 1277.1191,-122 1277.1191,-86 1394.8809,-86 1394.8809,-122"/>
<text text-anchor="middle" x="1336" y="-99.8" font-family="Times,serif" font-size="14.00" fill="#000000">FooterComponent</text>
</g>
<!-- FooterComponent&#45;&gt;HomeModule -->
<g id="edge5" class="edge">
<title>FooterComponent&#45;&gt;HomeModule</title>
<path fill="none" stroke="#000000" d="M1336,-122.0336C1336,-139.0597 1336,-162 1336,-162 1336,-162 1098.9103,-162 1098.9103,-162"/>
<polygon fill="#000000" stroke="#000000" points="1098.9103,-158.5001 1088.9103,-162 1098.9102,-165.5001 1098.9103,-158.5001"/>
</g>
<!-- HeaderComponent -->
<g id="node6" class="node">
<title>HeaderComponent</title>
<polygon fill="#ffffb3" stroke="#000000" points="1258.7437,-122 1137.2563,-122 1137.2563,-86 1258.7437,-86 1258.7437,-122"/>
<text text-anchor="middle" x="1198" y="-99.8" font-family="Times,serif" font-size="14.00" fill="#000000">HeaderComponent</text>
</g>
<!-- HeaderComponent&#45;&gt;HomeModule -->
<g id="edge6" class="edge">
<title>HeaderComponent&#45;&gt;HomeModule</title>
<path fill="none" stroke="#000000" d="M1198,-122.2396C1198,-137.5706 1198,-157 1198,-157 1198,-157 1098.8051,-157 1098.8051,-157"/>
<polygon fill="#000000" stroke="#000000" points="1098.8052,-153.5001 1088.8051,-157 1098.8051,-160.5001 1098.8052,-153.5001"/>
</g>
<!-- HomeLayoutComponent -->
<g id="node7" class="node">
<title>HomeLayoutComponent</title>
<polygon fill="#ffffb3" stroke="#000000" points="1119.7021,-122 964.2979,-122 964.2979,-86 1119.7021,-86 1119.7021,-122"/>
<text text-anchor="middle" x="1042" y="-99.8" font-family="Times,serif" font-size="14.00" fill="#000000">HomeLayoutComponent</text>
</g>
<!-- HomeLayoutComponent&#45;&gt;HomeModule -->
<g id="edge7" class="edge">
<title>HomeLayoutComponent&#45;&gt;HomeModule</title>
<path fill="none" stroke="#000000" d="M1042,-122.1061C1042,-122.1061 1042,-140.991 1042,-140.991"/>
<polygon fill="#000000" stroke="#000000" points="1038.5001,-140.9909 1042,-150.991 1045.5001,-140.991 1038.5001,-140.9909"/>
</g>
<!-- LandingComponent -->
<g id="node8" class="node">
<title>LandingComponent</title>
<polygon fill="#ffffb3" stroke="#000000" points="945.9902,-122 818.0098,-122 818.0098,-86 945.9902,-86 945.9902,-122"/>
<text text-anchor="middle" x="882" y="-99.8" font-family="Times,serif" font-size="14.00" fill="#000000">LandingComponent</text>
</g>
<!-- LandingComponent&#45;&gt;HomeModule -->
<g id="edge8" class="edge">
<title>LandingComponent&#45;&gt;HomeModule</title>
<path fill="none" stroke="#000000" d="M882,-122.2396C882,-137.5706 882,-157 882,-157 882,-157 984.8601,-157 984.8601,-157"/>
<polygon fill="#000000" stroke="#000000" points="984.8601,-160.5001 994.8601,-157 984.8601,-153.5001 984.8601,-160.5001"/>
</g>
<!-- ScrollToTopModule -->
<g id="node10" class="node">
<title>ScrollToTopModule</title>
<polygon fill="#8dd3c7" stroke="#000000" points="793.594,-122 790.594,-126 769.594,-126 766.594,-122 662.406,-122 662.406,-86 793.594,-86 793.594,-122"/>
<text text-anchor="middle" x="728" y="-99.8" font-family="Times,serif" font-size="14.00" fill="#000000">ScrollToTopModule</text>
</g>
<!-- ScrollToTopModule&#45;&gt;HomeModule -->
<g id="edge9" class="edge">
<title>ScrollToTopModule&#45;&gt;HomeModule</title>
<path fill="none" stroke="#000000" d="M728,-122.0336C728,-139.0597 728,-162 728,-162 728,-162 984.991,-162 984.991,-162"/>
<polygon fill="#000000" stroke="#000000" points="984.9911,-165.5001 994.991,-162 984.991,-158.5001 984.9911,-165.5001"/>
</g>
<!-- SharedModule -->
<g id="node11" class="node">
<title>SharedModule</title>
<polygon fill="#8dd3c7" stroke="#000000" points="644.4231,-122 641.4231,-126 620.4231,-126 617.4231,-122 545.5769,-122 545.5769,-86 644.4231,-86 644.4231,-122"/>
<text text-anchor="middle" x="595" y="-99.8" font-family="Times,serif" font-size="14.00" fill="#000000">SharedModule</text>
</g>
<!-- SharedModule&#45;&gt;HomeModule -->
<g id="edge10" class="edge">
<title>SharedModule&#45;&gt;HomeModule</title>
<path fill="none" stroke="#000000" d="M595,-122.2222C595,-140.8285 595,-167 595,-167 595,-167 985.008,-167 985.008,-167"/>
<polygon fill="#000000" stroke="#000000" points="985.0081,-170.5001 995.008,-167 985.008,-163.5001 985.0081,-170.5001"/>
</g>
<!-- SvgViewerModule -->
<g id="node12" class="node">
<title>SvgViewerModule</title>
<polygon fill="#8dd3c7" stroke="#000000" points="528.0269,-122 525.0269,-126 504.0269,-126 501.0269,-122 405.9731,-122 405.9731,-86 528.0269,-86 528.0269,-122"/>
<text text-anchor="middle" x="467" y="-99.8" font-family="Times,serif" font-size="14.00" fill="#000000">SvgViewerModule</text>
</g>
<!-- SvgViewerModule&#45;&gt;HomeModule -->
<g id="edge11" class="edge">
<title>SvgViewerModule&#45;&gt;HomeModule</title>
<path fill="none" stroke="#000000" d="M467,-122.2228C467,-142.3652 467,-172 467,-172 467,-172 984.9453,-172 984.9453,-172"/>
<polygon fill="#000000" stroke="#000000" points="984.9454,-175.5001 994.9453,-172 984.9453,-168.5001 984.9454,-175.5001"/>
</g>
<!-- ThemePickerModule -->
<g id="node13" class="node">
<title>ThemePickerModule</title>
<polygon fill="#8dd3c7" stroke="#000000" points="388.1853,-122 385.1853,-126 364.1853,-126 361.1853,-122 253.8147,-122 253.8147,-86 388.1853,-86 388.1853,-122"/>
<text text-anchor="middle" x="321" y="-99.8" font-family="Times,serif" font-size="14.00" fill="#000000">ThemePickerModule</text>
</g>
<!-- ThemePickerModule&#45;&gt;HomeModule -->
<g id="edge12" class="edge">
<title>ThemePickerModule&#45;&gt;HomeModule</title>
<path fill="none" stroke="#000000" d="M321,-122.0449C321,-143.6623 321,-177 321,-177 321,-177 984.9713,-177 984.9713,-177"/>
<polygon fill="#000000" stroke="#000000" points="984.9713,-180.5001 994.9713,-177 984.9713,-173.5001 984.9713,-180.5001"/>
</g>
<!-- CoordBikeshareService -->
<g id="node14" class="node">
<title>CoordBikeshareService</title>
<ellipse fill="#fdb462" stroke="#000000" cx="127" cy="-104" rx="102.9879" ry="18"/>
<text text-anchor="middle" x="127" y="-99.8" font-family="Times,serif" font-size="14.00" fill="#000000">CoordBikeshareService</text>
</g>
<!-- CoordBikeshareService&#45;&gt;HomeModule -->
<g id="edge13" class="edge">
<title>CoordBikeshareService&#45;&gt;HomeModule</title>
<path fill="none" stroke="#000000" d="M127,-122.0908C127,-145.1328 127,-182 127,-182 127,-182 985.0502,-182 985.0502,-182"/>
<polygon fill="#000000" stroke="#000000" points="985.0502,-185.5001 995.0502,-182 985.0502,-178.5001 985.0502,-185.5001"/>
</g>
</g>
</svg>
